<?xml version="1.0" standalone="no"?>
<!DOCTYPE svg PUBLIC "-//W3C//DTD SVG 20010904//EN"
 "http://www.w3.org/TR/2001/REC-SVG-20010904/DTD/svg10.dtd">
<svg version="1.0" xmlns="http://www.w3.org/2000/svg"
 width="300.000000pt" height="300.000000pt" viewBox="0 0 300.000000 300.000000"
 preserveAspectRatio="xMidYMid meet">
<metadata>
Created by potrace 1.15, written by Peter Selinger 2001-2017
</metadata>
<path d="M0 0 0 3000 3000 3000 3000 0" fill="#fbe300"/>
<g transform="translate(0.000000,300.000000) scale(0.100000,-0.100000)"
fill="#3b1e1e" stroke="none">
<path d="M1279 2520 c-387 -61 -710 -274 -857 -565 -58 -117 -77 -197 -77
-335 0 -103 4 -138 24 -200 47 -151 123 -272 242 -385 69 -66 187 -151 244
-177 14 -6 24 -17 21 -24 -22 -57 -107 -406 -103 -418 4 -9 15 -16 26 -16 11
0 127 72 258 160 l238 160 100 -11 c72 -7 135 -7 224 1 503 45 890 317 1012
710 34 108 34 292 0 400 -103 331 -388 574 -794 676 -89 23 -127 26 -302 29
-110 2 -225 0 -256 -5z m-209 -650 c11 -11 20 -29 20 -40 0 -40 -35 -60 -105
-60 l-65 0 -2 -217 -3 -217 -27 -16 c-25 -13 -31 -13 -55 0 l-28 16 -3 217 -2
217 -63 0 c-73 0 -107 18 -107 57 0 15 7 35 17 45 14 16 35 18 210 18 180 0
194 -1 213 -20z m248 -3 c26 -27 194 -481 190 -511 -2 -11 -15 -27 -30 -36
-42 -23 -78 1 -97 63 l-15 47 -108 0 -108 0 -10 -27 c-15 -44 -34 -75 -51 -86
-24 -15 -68 0 -81 28 -10 22 0 56 77 263 53 140 98 246 112 260 31 31 92 30
121 -1z m346 1 c13 -19 16 -58 16 -230 l0 -208 89 0 c97 0 114 -8 114 -57 0
-46 -24 -53 -169 -53 -126 0 -134 1 -148 22 -13 19 -16 61 -16 263 0 272 3
285 65 285 24 0 39 -7 49 -22z m364 10 c8 -8 12 -46 12 -105 0 -51 2 -93 4
-93 3 0 49 46 103 101 80 82 105 102 128 102 30 0 65 -33 65 -59 0 -8 -39 -55
-86 -104 -50 -52 -83 -94 -79 -100 4 -6 45 -61 91 -122 46 -61 84 -119 84
-129 0 -26 -35 -59 -63 -59 -31 0 -49 18 -136 138 -70 96 -75 101 -92 86 -15
-13 -19 -35 -21 -107 -3 -88 -4 -92 -30 -107 -25 -13 -31 -13 -55 0 l-28 16
-3 258 c-2 230 0 261 14 278 19 20 74 24 92 6z"/>
<path d="M1221 1658 c-17 -57 -31 -106 -31 -110 0 -5 32 -8 71 -8 53 0 70 3
67 13 -3 6 -20 56 -37 110 -18 53 -34 97 -35 97 -2 0 -17 -46 -35 -102z"/>
</g>
</svg>
